<svg width="600" height="400" viewBox="0 0 600 400" fill="none" xmlns="http://www.w3.org/2000/svg">
<path d="M324.351 400L324.351 307.226C346.927 268.945 346.927 199.804 346.927 199.804C346.927 199.804 346.927 131.054 324.351 92.7735C324.351 56.5432 324.351 0 324.351 0H600V78.5157H421.952V160.547H582.451V239.258H421.952V400H324.351Z" fill="#DB2779"/>
<path d="M145.514 317.578H97.6008V82.4219H144.134C167.269 82.4219 186.724 86.263 202.497 93.9453C218.403 101.497 230.43 113.867 238.58 131.054C246.73 148.112 250.805 171.028 250.805 199.804C250.805 228.58 246.73 251.628 238.58 268.945C230.562 286.133 218.665 298.568 202.892 306.25C187.249 313.803 168.123 317.578 145.514 317.578Z" fill="#DB2779"/>
<path d="M149.063 0C190.207 0 225.632 8.00782 255.339 24.0234C285.179 39.9089 308.183 62.8255 324.351 92.7735C324.351 56.5432 324.351 0 324.351 0H149.063Z" fill="#DB2779"/>
<path d="M324.351 307.226C308.314 337.174 285.375 360.156 255.537 376.172C225.698 392.057 190.272 400 149.26 400H324.351L324.351 307.226Z" fill="#DB2779"/>
<rect x="5" y="5" width="348" height="390" stroke="#DB2779" stroke-width="10"/>
</svg>
